<svg xmlns="http://www.w3.org/2000/svg" xmlns:xlink="http://www.w3.org/1999/xlink" version="1.1"  height="220" viewBox="0 0 841.89 595.276">
<defs>
<clipPath id="clip_0">
<path transform="matrix(1,0,0,-1,0,595.276)" d="M0 595.276H841.89V0H0Z"/>
</clipPath>
</defs>
<g id="layer_1" data-name="Layer">
<g clip-path="url(#clip_0)">
<path transform="matrix(1,0,0,-1,660.373,499.9233)" d="M0 0C-3.091-.282-5.49-.399-7.854-.752-9.394-.982-10.21-2.136-10.287-3.69-10.403-6.043-8.727-7.694-6.378-8.061-4.367-5.52-2.536-3.205 0 0M-234.744-37.325-234.99-36.197C-235.846-35.995-236.7-35.62-237.556-35.615-246.806-35.56-256.057-35.551-265.307-35.568-266.216-35.57-267.269-35.591-267.997-36.03-268.832-36.536-269.832-37.469-269.923-38.307-270.014-39.131-269.262-40.388-268.506-40.882-267.396-41.607-265.981-42.049-264.646-42.222-255.941-43.347-247.42-42.454-239.148-39.508-237.615-38.962-236.209-38.063-234.744-37.325M-28.536-32.544C-28.044-35.159-27.828-36.783-27.425-38.359-26.121-43.444-21.229-45.878-16.619-43.65-15.263-42.994-13.887-42.061-12.951-40.905-10.045-37.313-7.311-33.58-4.596-29.84-4.043-29.078-3.869-28.043-3.521-27.134-5.237-27.75-6.277-28.804-7.254-29.913-9.189-32.113-10.988-34.445-13.043-36.525-14.423-37.923-16.017-39.229-17.748-40.126-19.65-41.112-21.215-40.159-21.313-38.062-21.392-36.399-21.282-34.588-20.687-33.065-19.515-30.068-18.149-27.104-16.481-24.358-15.056-22.011-13.021-20.042-11.393-17.806-9.985-15.872-10.464-14.309-12.579-13.317-14.816-12.27-16.875-12.638-18.449-14.493-20.738-17.192-22.909-19.995-25.058-22.811-28.7-27.583-32.213-32.457-35.937-37.165-37.109-38.648-38.396-40.344-40.519-40.463-42.14-38.977-41.2-37.659-40.563-36.537-38.514-32.924-36.341-29.38-34.183-25.828-33.303-24.381-32.1-23.076-31.504-21.529-31.127-20.55-31.19-18.89-31.803-18.181-32.432-17.454-34.098-17.062-35.08-17.339-36.481-17.733-37.696-18.838-38.95-19.697-40.397-20.689-41.801-21.745-43.223-22.772-43.525-22.581-43.828-22.391-44.132-22.199-44.012-21.298-44.13-20.262-43.712-19.53-43.196-18.627-42.185-18.022-41.478-17.21-39.729-15.2-38.926-12.79-40.079-10.365-40.648-9.168-42.149-8.008-43.447-7.669-45.021-7.258-45.715-8.888-46.196-10.239-46.352-10.674-46.453-11.129-46.59-11.57-49.355-20.521-53.455-28.706-60.113-35.469-60.67-36.034-60.689-37.128-60.959-37.976-60.632-38.173-60.304-38.369-59.977-38.565-58.896-37.369-57.724-36.241-56.755-34.96-55.179-32.875-53.661-30.736-52.253-28.534-50.407-25.649-48.418-23.355-44.449-24.634-43.566-24.918-42.451-24.483-40.63-24.297-41.712-26.24-42.503-27.503-43.139-28.838-44.455-31.601-45.909-34.326-46.885-37.21-47.676-39.546-47.03-41.912-44.86-43.371-42.739-44.797-40.313-44.754-38.379-43.127-35.933-41.069-33.745-38.694-31.519-36.388-30.625-35.462-29.924-34.351-28.536-32.544M-288.854-11.633C-288.514-11.925-288.174-12.216-287.834-12.508-283.73-7.778-279.51-3.143-275.561 1.715-272.85 5.05-270.302 8.563-268.08 12.236-266.256 15.252-266.933 16.482-270.215 17.846-271.352 18.317-272.595 18.621-273.611 19.277-276.01 20.827-278.002 20.148-279.866 18.412-280.879 17.468-281.862 16.481-282.777 15.442-291.094 6.006-297.726-4.564-302.809-16.006-305.931-23.031-308.262-30.412-307.874-38.359-307.484-46.331-301.557-49.604-294.801-45.398-293.898-44.837-293.026-44.11-292.376-43.276-289.919-40.12-287.502-36.929-285.211-33.651-284.748-32.988-284.9-31.895-284.769-30.999-287.605-33.55-289.745-36.313-292.001-38.979-293.291-40.502-294.613-42.076-296.197-43.257-299.133-45.447-302.153-44.101-302.52-40.487-302.672-38.99-302.555-37.356-302.106-35.929-300.724-31.537-299.329-27.129-297.566-22.882-292.672-11.091-285.093-.981-277.138 8.855-275.861 10.435-274.214 11.715-272.738 13.134-272.41 12.851-272.082 12.566-271.754 12.283-276.281 3.535-284.222-2.954-288.854-11.633M-266.48 92.202C-264.007 91.983-262.194 91.497-260.479 91.731-254.55 92.542-248.545 93.174-242.77 94.656-229.555 98.051-217.348 103.82-206.189 111.711-202.99 113.973-202.708 115.328-205.055 118.562-206.756 120.904-208.64 123.263-210.902 125.024-223.23 134.627-239.012 135.122-249.805 120.696-255.443 113.16-260.577 105.34-264.844 96.958-265.493 95.684-265.794 94.233-266.48 92.202M-143.601-29.404C-143.43-30.17-143.259-30.936-143.008-32.059-134.419-19.945-125.834-10.981-121.438-9.679-121.673-10.546-121.759-11.277-122.062-11.903-123.47-14.82-125.063-17.653-126.358-20.617-128.641-25.833-131.246-30.959-131.676-36.795-132.117-42.803-131.206-44.422-125.859-47.026-122.808-48.513-121.076-48.217-118.964-45.616-117.721-44.085-116.678-42.392-115.417-40.588-114.442-41.159-113.634-41.54-112.93-42.062-109.602-44.529-109.127-44.632-106.1-42.248-104.417-40.923-102.966-39.301-101.415-37.808-100.143-36.583-98.877-35.352-97.058-33.59-96.831-35.707-96.8-36.903-96.562-38.057-95.764-41.922-92.221-43.595-88.822-41.608-87.522-40.85-86.483-39.642-85.338-38.626-84.367-37.768-83.414-36.891-82.261-35.849-81.445-37.405-81.064-38.656-80.266-39.524-79.272-40.603-78.052-41.847-76.724-42.169-73.214-43.021-69.687-42.84-66.448-40.847-61.294-37.673-60.452-33.26-64.267-28.48-65.308-27.177-66.646-26.087-67.94-25.012-72.137-21.528-71.967-18.799-67.044-16.259-64.613-15.005-61.879-14.333-59.272-13.428-58.047-13.002-56.798-12.648-55.563-12.263-57.213-7.028-58.668-5.958-62.94-7.038-68.601-8.469-73.294-11.209-74.758-17.441-76.613-25.342-82.364-30.685-87.245-36.592-88.04-37.553-89.177-38.251-90.797-36.489-90.069-34.631-89.358-32.473-88.391-30.437-87.398-28.354-86.159-26.386-85.017-24.374-84.166-22.877-83.964-21.472-85.522-20.278-87.084-19.083-89.18-19.159-90.532-20.58-91.16-21.239-91.643-22.058-92.104-22.854-95.79-29.22-100.81-34.398-106.503-38.959-107.341-39.631-108.452-39.962-109.438-40.45-109.723-40.206-110.008-39.962-110.294-39.717-109.846-38.366-109.55-36.939-108.924-35.677-105.824-29.422-100.795-24.939-95.32-20.809-92.005-18.307-88.569-16.571-84.31-16.908-84.126-16.923-83.908-16.499-83.708-16.278-85.332-11.395-88.338-9.876-93.224-11.529-100.872-14.118-106.384-19.429-110.847-25.869-112.488-28.237-114.318-31.024-114.505-33.729-114.818-38.271-117.864-40.09-120.861-42.11-123.518-43.9-125.844-42.53-125.706-39.317-125.635-37.661-125.2-35.927-124.519-34.412-123.32-31.748-121.888-29.18-120.41-26.654-116.208-19.471-111.883-12.36-107.731-5.147-106.83-3.582-106.26-1.753-105.898 .028-105.558 1.707-106.388 3.102-108.164 3.531-111.865 4.426-115.326 4.744-118.39 1.473-125.14-5.733-132.087-12.744-137.527-21.067-139.439-23.993-141.643-26.728-143.712-29.55-143.178-27.648-142.968-25.57-142.049-23.877-139.182-18.593-135.997-13.482-133.03-8.25-130.905-4.503-128.572-.813-126.979 3.161-124.702 8.838-128.062 12.865-134.251 12.469-138.055 12.226-141.408 10.737-144.656 8.889-155.599 2.662-164.993-5.548-174.13-14.089-176.538-16.34-178.905-18.635-181.292-20.909-181.542-20.694-181.793-20.479-182.043-20.266-181.338-19.161-180.741-17.968-179.91-16.968-173.5-9.262-167.002-1.629-160.621 6.102-157.285 10.142-154.035 14.262-150.929 18.48-149.165 20.876-148.139 23.659-148.689 26.747-149.448 31.008-152.541 34.037-157.859 34.544-163.822 35.113-169.905 35.488-175.849 34.965-188.936 33.813-201.735 30.996-214.178 26.669-223.059 23.579-232.097 20.886-240.354 16.249-243.034 14.744-245.667 13.133-248.196 11.39-249.834 10.262-250.575 8.574-249.885 6.521-249.064 4.077-245.88 2.025-242.767 1.924-241.521 6.076-241.375 6.616-237.597 9.016-233.702 11.488-229.691 13.863-225.494 15.758-211.963 21.864-197.837 26.297-183.445 29.861-176.708 31.53-169.912 33.071-162.88 32.653-158.231 32.378-156.917 30.057-159.011 25.906-159.355 25.221-159.803 24.581-160.253 23.955-164.846 17.573-169.426 11.181-174.055 4.825-182.225-6.391-190.518-17.519-198.562-28.823-201.052-32.322-203.082-36.186-204.993-40.045-206.576-43.241-205.601-45.85-202.745-47.588-199.888-49.326-197.574-48.69-195.204-45.682-190.531-39.75-185.89-33.791-181.079-27.973-171.194-16.019-159.573-5.9-147.297 3.496-145.71 4.711-143.984 5.765-142.246 6.759-140.742 7.62-139.129 8.185-137.278 6.572-137.051 4.374-138.032 2.292-139.027 .228-142.44-6.855-146.068-13.844-149.223-21.039-151.067-25.247-152.494-29.702-152.195-34.474-152.047-36.846-151.267-38.606-148.348-39.174-147.837-38.027-147.391-36.929-146.868-35.869-145.801-33.703-144.692-31.559-143.601-29.404M-443.778 132.643C-445.068 128.696-446.294 124.728-447.662 120.809-450.163 113.644-452.255 106.384-452.462 98.743-452.936 81.275-442.506 71.793-426.879 69.856-415.309 68.424-404.129 71.088-393.254 74.761-378.844 79.627-365.423 86.545-353.021 95.369-350.01 97.513-347.153 99.889-344.357 102.311-343.285 103.239-342.583 104.596-341.748 105.709-344.487 109.643-348.417 110.473-352.068 111.35-358.657 112.932-365.383 113.931-372.02 115.327-375.33 116.024-378.639 116.86-381.825 117.985-387.528 120-389.629 123.806-388.028 129.573-381.583 152.784-369.481 172.176-349.186 185.802-346.018 187.929-342.42 189.506-338.858 190.928-335.809 192.145-332.531 192.385-329.436 190.714-328.006 189.941-326.948 188.947-327.184 187.069-327.457 184.896-331.894 173.634-333.637 171.105-334.427 171.286-335.347 171.38-336.176 171.705-341.187 173.672-345.888 172.417-350.462 170.306-358.588 166.555-365.104 160.65-371.27 154.342-373.746 151.809-376.051 149.097-378.304 146.358-382.011 141.851-381.613 139.724-376.173 137.927-370.926 136.193-365.467 135.091-360.081 133.795-354.238 132.39-348.357 131.139-342.525 129.688-341.059 129.324-339.633 128.595-338.332 127.798-332.787 124.401-331.801 121.559-333.95 115.406-335.681 110.454-337.579 105.557-339.196 100.568-341.896 92.234-347.865 86.445-354.3 81.094-366.145 71.247-379.618 64.126-393.755 58.198-396.166 57.188-398.69 56.445-401.17 55.602-403.013 54.976-403.942 53.64-403.961 51.771-404.032 44.73-402.992 37.829-399.556 31.647-395.224 23.85-387.63 21.602-378.809 24.913-371.976 27.478-366.324 31.833-361.787 37.337-355.713 44.704-349.982 52.381-344.499 60.202-336.528 71.572-329.001 83.26-319.51 93.48-313.264 100.206-306.28 106.038-297.951 109.982-294.074 111.818-289.896 113.036-285.807 114.394-284.871 114.705-283.743 114.439-282.449 114.439-281.965 112.89-281.5 111.447-281.065 109.996-279.933 106.212-277.5 103.581-273.951 101.935-269.836 100.024-268.208 100.686-266.372 104.804-263.552 111.134-260.817 117.509-257.749 123.718-253.092 133.143-247.472 141.982-240.678 150.038-232.228 160.06-220.184 161.21-209.733 155.795-202.746 152.174-197.466 146.934-195.299 139.198-194.709 137.094-194.615 134.508-195.274 132.458-197.396 125.86-199.821 119.348-202.426 112.922-204.404 108.04-208.408 104.675-212.528 101.692-227.671 90.732-244.572 83.957-263.049 81.147-264.87 80.871-266.742 80.911-268.591 80.835-273.393 80.636-274.334 79.892-273.941 74.964-273.651 71.327-273.113 67.517-271.699 64.204-268.933 57.724-261.319 55.578-255.355 56.155-248.769 56.791-242.788 59.304-237.169 62.584-228.114 67.869-219.193 73.385-210.23 78.828-199.8 85.164-189.18 91.118-177.641 95.251-176.481 95.666-175.307 96.046-174.125 96.395-170.017 97.606-169.629 98.619-171.178 102.774-172.629 106.667-174.163 110.575-175.09 114.607-177.401 124.669-179.659 134.758-181.437 144.923-183.508 156.772-185.088 168.709-186.795 180.619-187.495 185.503-188.04 190.412-188.52 195.323-188.795 198.14-190.185 200.119-192.253 201.944-197.914 206.938-203.661 211.865-208.977 217.213-214.978 223.252-220.197 229.969-222.919 238.23-225.244 245.286-225.704 252.336-222.623 259.365-221.521 261.88-220.746 264.538-219.453 268.167-217.586 262.485-216.502 257.464-214.307 252.988-212.093 248.477-208.908 244.408-205.904 240.326-202.811 236.122-199.048 232.531-194.849 229.236-193.042 230.752-193.53 232.361-193.791 233.771-195.356 242.263-196.972 250.747-198.645 259.218-200.172 266.954-201.931 274.728-205.681 281.658-208.639 287.125-208.783 291.966-205.968 297.329-204.637 299.865-203.93 302.728-202.61 306.343-201.376 304.86-200.403 304.137-200.04 303.183-197.899 297.573-195.283 292.047-193.979 286.235-190.876 272.401-188.277 258.448-185.759 244.492-184.61 238.13-183.944 231.662-183.41 225.212-183.014 220.435-181.273 216.764-177.25 213.982-168.752 208.105-160.399 202.018-151.979 196.028-135.768 184.495-119.324 173.252-105.101 159.194-94.714 148.93-85.816 137.592-79.773 124.156-73.284 109.728-71.218 94.641-72.529 78.978-73.424 68.296-75.995 58.003-79.583 47.942-80.541 45.257-81.656 42.627-83.532 40.164-83.283 41.763-83.115 43.378-82.773 44.957-81.043 52.954-79.591 60.983-79.514 69.203-79.31 90.769-86.507 109.695-99.901 126.412-109.817 138.787-121.7 149.083-134.35 158.498-146.963 167.887-159.776 177.007-172.529 186.205-173.826 187.141-175.315 187.81-177.386 188.981-177.648 187.07-178.063 185.912-177.918 184.829-175.806 169.081-173.607 153.34-169.581 137.937-168.259 132.883-166.569 127.921-164.959 122.945-161.489 112.229-153.979 105.296-143.898 100.928-140.226 99.336-136.38 98.144-132.621 96.748-131.774 96.434-130.961 96.03-129.72 95.487-131.01 89.106-133.15 83.178-136.314 77.197-138.526 77.737-140.466 78.121-142.353 78.685-153.14 81.903-163.965 81.556-174.831 79.154-189.823 75.842-203.047 68.583-216.034 60.775-226.343 54.579-236.572 48.238-247.059 42.358-250.9 40.205-255.288 38.781-259.603 37.802-262.646 37.111-266.153 37.098-269.162 37.889-276.253 39.754-279.675 45.013-280.327 52.147-280.605 55.184-280.708 58.235-281.664 61.386-281.95 60.463-282.358 59.56-282.502 58.615-283.527 51.891-284.359 45.187-282.938 38.371-281.065 29.383-273.744 22.886-264.52 22.237-257.351 21.732-250.749 23.761-244.469 26.854-239.496 29.305-234.561 31.923-229.937 34.966-224.545 38.516-218.602 40.65-212.542 42.336-198.708 46.186-184.68 49.193-170.258 49.79-162.958 50.093-155.741 49.553-148.889 46.752-141.914 43.902-137.056 39.021-135.175 31.581-134.483 28.844-133.054 27.278-130.189 26.957-126.099 26.498-122.756 24.366-119.219 22.391-115.523 20.326-111.309 18.855-107.143 18.045-100.104 16.676-94.688 13.57-92.015 6.707-91.095 4.348-89.604 3.301-87.168 3.216-86.1 3.179-84.851 3.178-84.01 2.645-80.554 .453-77.736 2.006-74.553 3.516-62.382 9.285-49.818 9.454-37.212 5.107-34.82 4.283-32.792 2.371-30.643 .894-29.42 .054-28.29-.922-26.592-2.247-25.521-.408-24.484 .886-23.955 2.362-21.494 9.234-16.319 12.503-9.456 13.716-7.039 14.143-4.614 14.598-2.254 15.257 6.406 17.672 14.99 12.191 16.222 3.322 16.454 1.648 16.471-.063 16.473-1.759 16.492-18.122 16.487-34.486 16.487-50.85 16.487-51.775 16.528-52.707 16.453-53.627 16.229-56.332 15.751-56.841 13.133-57.07 12.061-57.164 10.974-57.105 9.893-57.105-115.613-57.112-241.12-57.136-366.627-57.062-371.312-57.059-375.267-58.032-379.097-60.865-386.453-66.306-394.924-69.444-404.022-69.864-414.025-70.325-423.359-67.535-431.05-60.885-434.356-58.026-437.756-57.032-441.995-57.077-457.122-57.236-472.251-57.138-487.38-57.134-488.615-57.134-489.854-57.168-491.084-57.092-494.592-56.874-495.24-56.383-495.266-52.99-495.346-42.339-495.429-31.685-495.24-21.036-495.114-13.895-491.715-8.701-484.897-6.029-479.223-3.806-472.487-5.553-467.704-10.837-465.117-13.695-462.273-15.825-458.449-16.525-453.829-17.371-452.503-16.43-452.321-11.726-452.065-5.144-450.544 1.062-447.483 6.906-441.439 18.444-428.073 19.933-419.575 13.014-415.202 9.453-411.885 5.052-409.013 .265-405.862-4.986-401.505-8.556-395.465-10.178-390.52-11.506-385.982-10.101-381.405-8.76-379.646-8.245-377.86-7.502-376.372-6.457-373.025-4.106-369.405-2.649-365.412-1.81-360.893-.859-356.452 .457-351.963 1.558-351.286 1.724-350.533 1.581-348.94 1.581-350.973-1.179-352.5-3.425-354.201-5.531-362.636-15.979-371.046-26.467-381.367-35.172-387.155-40.054-393.277-44.461-400.628-46.801-414.599-51.247-421.482-47.646-429.349-37.629-431.743-34.581-434.147-31.169-433.833-26.758-433.783-26.062-434.819-25.287-435.722-24.037-438.82-30.692-444.804-30.535-449.857-31.092-460.244-32.236-469.765-29.669-477.265-21.737-477.74-21.234-478.494-20.997-479.271-20.547-480.422-22.646-479.571-23.967-478.399-25.296-473.87-30.437-467.884-32.994-461.371-33.747-453.692-34.635-445.929-34.612-439.067-29.956-437.664-29.003-436.34-29.423-435.473-30.765-434.814-31.784-434.413-32.974-433.933-34.103-431.29-40.327-427.269-45.516-422.131-49.873-413.462-57.227-400.393-56.455-392.976-52.115-383.66-46.664-375.773-39.542-368.904-31.378-360.37-21.234-352.124-10.832-344.12-.264-341.238 3.542-338.065 5.683-333.341 5.608-330.006 5.557-326.67 5.599-323.263 5.599-322.692 2.903-324.037 1.033-324.807-.848-328.559-10.009-331.599-19.38-333.704-29.054-333.901-29.958-334.131-30.861-334.238-31.778-334.964-38.01-330.024-44.251-323.761-44.679-322.453-44.768-320.744-43.982-319.778-43.032-317.784-41.072-316.916-38.426-316.374-35.113-320.468-35.931-322.455-41.475-327.29-39.171-328.989-36.36-328.402-33.236-327.584-30.322-324.532-19.456-320.228-9.054-315.359 1.115-314.682 2.53-313.738 3.937-311.874 3.563-310.128 3.213-309.25 1.701-309.283 .129-309.319-1.649-309.836-3.45-310.361-5.176-310.687-6.247-311.417-7.194-311.601-8.463-307.623-6.751-304.964-3.871-303.924 .306-302.628 5.502-307.366 7.32-310.328 10.47-308.859 13.496-307.422 16.36-306.067 19.262-301.306 29.455-296.54 39.646-291.866 49.88-291.241 51.249-290.946 52.842-290.853 54.354-290.793 55.333-291.108 56.578-291.724 57.311-293.495 59.413-295.503 61.314-297.383 63.258-300.125 62.88-301.748 61.231-303.454 59.709-312.644 51.508-319.537 41.474-326.242 31.276-330.056 25.476-334.066 19.804-337.865 13.994-339.859 10.943-342.546 9.273-346.091 8.62-349.877 7.921-353.611 6.947-357.38 6.15-358.079 6.003-358.835 6.13-360.019 6.13-359.396 7.348-359.091 8.214-358.569 8.921-349.316 21.456-340.174 34.077-330.714 46.454-324.239 54.924-317.124 62.899-308.404 69.169-304.542 71.946-300.288 74.187-296.147 76.56-294.996 77.219-293.616 77.48-292.274 77.947-290.704 75.132-289.619 72.353-287.808 70.18-286.106 68.14-283.637 66.741-281.415 64.987-280.436 65.917-279.607 66.333-279.411 66.95-278.246 70.619-277.103 74.304-276.202 78.044-275.639 80.38-276.516 81.073-279.143 82.522-281.516 83.832-283.849 85.398-285.758 87.297-286.979 88.512-287.771 90.465-288.094 92.209-288.662 95.275-290.25 96.11-293.512 95.304-300.32 93.619-306.62 90.826-312.44 86.908-323.369 79.551-331.826 69.802-339.345 59.15-347.263 47.935-355.028 36.609-363.085 25.496-367.441 19.488-372.497 14.06-378.747 9.883-382.241 7.547-385.972 5.789-390.083 4.846-395.986 3.491-400.742 5.499-404.467 9.993-408.468 14.823-409.768 20.754-410.354 26.777-410.966 33.083-410.882 39.406-409.564 45.676-409.104 47.867-408.183 50.149-409.509 52.736-410.497 52.672-411.548 52.752-412.524 52.517-419.34 50.871-426.234 50.582-433.208 51.013-449.706 52.029-460.398 65.02-460.761 80.281-461.097 94.424-457.258 107.392-451.519 119.998-449.861 123.641-447.945 127.173-445.993 130.669-445.542 131.477-444.459 131.931-443.667 132.548Z" fill="#ed1e24"/>
<path transform="matrix(1,0,0,-1,487.4092,205.15671)" d="M0 0C1.133 2.085 2.264 4.171 3.399 6.255 5.02 9.229 6.881 12.096 6.477 15.758 6.256 17.748 5.767 19.393 2.94 20.044 1.878 19.045 .684 17.664-.756 16.622-4.225 14.113-7.556 11.191-11.406 9.484-17.004 7.004-19.623 9.208-18.213 15.092-17.112 19.686-15.311 24.193-13.229 28.45-10.454 34.12-6.985 39.445-4.056 45.044-2.566 47.892-1.31 50.935-.472 54.032 .763 58.593-.726 60.122-5.319 59.401-7.439 59.068-9.516 58.436-11.601 57.897-19.802 55.778-27.933 53.3-36.464 52.842-38.461 52.735-40.499 52.691-42.472 52.959-49.654 53.933-52.561 57.341-52.285 63.438-52.049 68.667-51.362 73.876-50.855 79.092-50.752 80.161-50.393 81.232-50.45 82.286-50.579 84.624-52.149 85.528-54.257 84.477-55.345 83.934-56.296 83.109-57.285 82.378-60.879 79.72-64.452 77.034-68.054 74.386-70.718 72.426-73.691 71.267-77.004 70.931-82.303 70.395-86.714 72.878-89.097 77.61-90.972 81.333-91.386 85.34-91.242 89.333-91.002 95.951-90.491 102.568-89.821 109.158-89.182 115.444-88.083 121.683-87.417 127.967-87.168 130.307-86.279 133.514-89.03 134.641-91.991 135.854-93.026 132.56-94.451 130.738-100.529 122.965-106.378 115.009-112.601 107.356-119.614 98.729-127.318 90.729-135.926 83.647-136.875 82.866-137.851 82.083-138.917 81.484-142.899 79.247-146.018 80.736-146.549 85.213-147.383 92.255-148.133 99.308-148.823 106.365-149.963 118.03-150.993 129.706-152.163 141.367-152.317 142.909-153.021 144.396-153.539 146.137-156.202 145.116-156.553 143.149-157.075 141.504-163.233 122.105-169.338 102.688-175.402 83.259-176.412 80.024-177.15 76.705-178.036 73.431-178.524 71.625-178.568 71.641-181.355 69.729-181.4 71.857-181.599 73.626-181.447 75.365-180.455 86.729-179.295 98.08-178.368 109.45-177.423 121.042-174.832 132.308-171.625 143.421-168.276 155.027-163.631 166.109-156.447 175.956-155.212 177.648-154.191 179.96-151.581 179.695-148.812 179.415-148.056 176.914-147.211 174.815-144.322 167.636-142.458 160.163-141.073 152.559-138.973 141.036-136.844 129.519-134.689 118.006-134.215 115.474-134.14 115.488-131.935 113.334-129.68 113.848-128.587 115.729-127.369 117.49-123.51 123.068-119.736 128.709-115.736 134.185-108.699 143.821-100.185 152.093-91.365 160.066-90.451 160.893-89.505 161.697-88.689 162.614-87.246 164.238-85.465 164.931-83.337 164.84-82.104 164.788-80.853 164.554-79.642 164.689-73.879 165.33-70.822 161.817-68.502 157.382-63.775 148.345-63.404 138.756-65.373 128.975-67.109 120.351-68.88 111.741-69.126 102.906-69.148 102.136-69.354 101.366-69.322 100.602-69.225 98.246-67.4 97.216-65.562 98.686-63.528 100.312-61.9 102.44-59.905 104.124-54.494 108.689-49.032 113.2-43.477 117.588-41.931 118.81-40.064 119.719-38.218 120.448-31.803 122.981-26.404 120.069-24.936 113.323-23.856 108.367-24.633 103.488-25.948 98.692-27.375 93.493-29.027 88.354-30.386 83.138-31.042 80.617-31.479 77.989-31.601 75.391-31.745 72.3-30.702 71.081-27.529 71.106-20.602 71.164-13.673 71.516-6.751 71.87-2.596 72.082 1.55 72.825 5.696 72.804 14.674 72.757 20.481 64.409 17.495 55.837 16.442 52.814 14.711 50.007 13.114 47.202 11.131 43.719 8.923 40.365 6.901 36.902 6.154 35.622 5.663 34.193 5.152 33.048 6.706 30.782 8.325 31.481 9.989 31.905 14.732 33.113 16.758 31.435 16.206 26.587 16.002 24.788 15.324 23.014 14.676 21.298 11.595 13.14 7.038 5.899 1.072-.446 .715-.297 .357-.149 0 0" fill="#ed1e24"/>
<path transform="matrix(1,0,0,-1,250.5366,349.4584)" d="M0 0C-1.696 6.502-2.714 11.976-2.043 17.73-.261 33.011 4.731 47.102 13.377 59.846 15.189 62.517 17.216 65.048 19.248 67.56 20.846 69.537 21.39 71.541 20.335 73.974 17.854 79.694 17.332 85.577 19.134 91.604 20.397 95.832 19.201 99.367 16.48 102.753 9.345 111.635 8.908 122.009 15.054 131.367 18.954 137.306 24.455 141.498 30.327 145.269 30.675 145.492 31.196 145.445 31.841 145.56 32.54 143.798 31.433 142.621 30.754 141.309 28.638 137.219 26.544 133.117 24.517 128.983 24.119 128.172 23.964 127.208 23.857 126.295 23.432 122.662 24.905 120.753 28.494 120.234 29.866 120.036 31.277 120.03 32.621 119.72 37.098 118.687 40.058 115.522 40.039 110.931 40.021 106.491 39.456 102.028 38.8 97.625 38.221 93.742 37.96 89.996 39.485 86.256 41.465 81.4 45.325 78.808 50.384 79.767 62.918 82.142 71.548 89.264 75.715 101.481 77.449 106.564 77.545 111.793 76.807 117.038 75.968 122.993 74.946 128.922 74.052 134.87 73.651 137.54 73.155 140.232 74.145 144.087 75.902 141.545 77.313 139.968 78.207 138.137 85.954 122.254 88.48 105.505 85.207 88.171 83.624 79.787 79.687 72.308 71.265 68.596 68.515 67.384 65.321 66.519 62.355 66.585 52.633 66.802 44.67 62.754 37.489 56.9 27.332 48.618 19.556 38.283 12.956 27.04 8.494 19.439 4.737 11.517 2.247 3.023 2.002 2.188 1.162 1.527 0 0" fill="#ed1e24"/>
<path transform="matrix(1,0,0,-1,395.085,309.1303)" d="M0 0C-2.599-6.749-1.941-13.107-3.672-18.994-6.853-20.744-9.752-19.715-12.536-18.338-13.901-17.663-15.211-16.729-16.295-15.66-20.801-11.213-25.309-6.793-31.03-3.867-31.236-3.762-31.277-3.332-31.478-2.861-30.411-.786-28.505-1.009-26.837-1.735-25.032-2.521-23.411-3.758-21.764-4.877-19.35-6.519-17.081-8.401-14.551-9.83-13.517-10.414-11.562-10.617-10.763-10.015-9.966-9.414-9.586-7.446-9.903-6.326-11.157-1.889-12.695 2.474-14.246 6.821-15.489 10.307-17.046 13.684-18.184 17.2-18.836 19.218-19.241 21.419-19.216 23.532-19.149 29.093-13.86 32.063-9.096 29.117-6.106 27.268-3.249 25.05-.766 22.564 4.898 16.894 10.277 10.94 15.814 5.143 17.087 3.809 18.41 2.457 19.927 1.438 21.818 .169 24.797 1.176 24.299 3.941 23.536 8.174 23.15 12.575 21.665 16.555 19.14 23.319 15.831 29.788 12.951 36.424 9.895 43.469 6.955 50.564 3.984 57.589 6.019 59.266 6.926 58.257 7.788 57.083 11.529 51.993 15.594 47.104 18.937 41.764 25.088 31.939 30.035 21.489 33.441 10.367 36.218 1.3 37.938-7.895 36.511-17.433 35.701-22.84 34.068-23.911 28.637-22.553 20.004-20.394 13.656-14.872 7.964-8.423 6.336-6.578 4.946-4.524 3.327-2.672 2.583-1.821 1.549-1.223 0 0" fill="#ed1e24"/>
<path transform="matrix(1,0,0,-1,322.8716,155.58692)" d="M0 0C.928-3.604-.698-5.731-3-7.516-6.699-10.385-11.071-11.112-15.594-11.535-19.724-11.92-23.87-12.413-27.919-13.28-29.952-13.715-31.968-14.84-33.667-16.093-36.793-18.399-36.427-20.752-32.832-22.146-27.369-24.265-21.863-26.278-16.352-28.27-14.04-29.105-11.672-29.79-9.319-30.509-5.108-31.797-1.772-30.532 .854-27.058 1.558-26.128 2.476-25.36 3.745-24.055 6.133-28.242 7.4-32.044 6.348-36.294 5.578-39.404 3.314-40.792-.34-40.766-5.061-40.732-9.485-39.336-13.679-37.381-18.72-35.031-23.91-33.93-29.404-34.677-35.203-35.465-40.982-36.405-46.753-37.373-49.88-37.897-52.825-38.214-55.396-35.675-57.311-33.784-58.074-31.822-57.664-29.06-55.653-15.524-47.58-6.576-36.107-.175-34.958 .466-33.458 .747-32.121 .744-22.09 .716-12.058 .583-2.027 .454-1.441 .447-.859 .2 0 0" fill="#ed1e24"/>
<path transform="matrix(1,0,0,-1,432.5586,243.8168)" d="M0 0C-4.926 14.331-9.684 28.13-16.437 41.154-23.176 54.15-31.684 65.948-40.427 77.695-34.931 76.009-30.667 72.564-26.416 69.157-11.503 57.202-1.514 41.548 6.802 24.657 8.002 22.22 8.433 19.762 7.412 17.084 5.61 12.36 4.008 7.559 2.206 2.835 1.859 1.927 .976 1.224 0 0" fill="#ed1e24"/>
<path transform="matrix(1,0,0,-1,250.0713,395.0473)" d="M0 0C2.164 3.176 4.115 6.037 6.324 9.279 11.351 6.373 15.525 3.107 19.103-.888 19.711-1.566 20.155-3.131 19.791-3.82 17.751-7.69 16.214-11.944 12.627-15.056 9.677-12.612 7.047-10.28 4.256-8.159 .521-5.321-.541-5.632-2.843-9.701-3.81-11.41-4.895-13.053-6.239-15.234-11.509-11.541-16.056-7.645-20.876-3.388-18.755 .344-16.86 3.825-14.814 7.216-13.643 9.158-11.901 8.722-10.418 7.656-7.923 5.866-5.567 3.883-3.116 2.027-2.18 1.318-1.146 .739 0 0" fill="#ed1e24"/>
<path transform="matrix(1,0,0,-1,357.1724,166.81439)" d="M0 0C1.811-.414 3.84-.627 5.672-1.343 11.003-3.425 12.579-6.439 12.009-12.187 11.582-16.497 10.169-20.289 7.028-23.318 3.665-26.561 .825-26.872-2.809-24.003-5.082-22.209-7.286-20.148-8.955-17.804-12.829-12.366-10.288-3.447-4.249-.74-3.038-.198-1.56-.253 0 0" fill="#ed1e24"/>
<path transform="matrix(1,0,0,-1,216.7065,367.3754)" d="M0 0C.332 2.659-.261 4.624-2.974 6.027-5.201 7.18-6.159 9.601-6.654 12.146-7.738 17.71-7.402 23.336-6.041 28.649-3.68 37.863-.619 46.905 2.386 55.94 3.164 58.28 4.82 60.329 6.469 62.236 4.704 54.82 2.747 47.443 1.259 39.973 .576 36.541 .62 32.921 .704 29.396 .754 27.289 1.232 25.083 2.028 23.129 3.478 19.568 6.306 18.309 10.191 19.015 10.761 19.118 11.337 19.185 12.351 19.332 10.838 14.515 8.586 10.604 5.169 7.465 2.867 5.35 1.096 2.948-.112 .095Z" fill="#ed1e24"/>
<path transform="matrix(1,0,0,-1,357.7705,452.28663)" d="M0 0C-.437-1.282-.748-2.625-1.33-3.839-5.851-13.276-10.535-22.639-14.918-32.14-16.29-35.112-18.168-36.354-21.332-36.216-24.327-36.085-27.332-36.188-31.088-36.188-29.972-34.483-29.436-33.417-28.677-32.543-19.707-22.211-13.223-9.887-3.025-.549-2.4 .024-1.46 .254-.667 .644-.444 .429-.222 .215 0 0" fill="#ed1e24"/>
<path transform="matrix(1,0,0,-1,580.2793,532.3754)" d="M0 0C2.046 3.143 3.767 5.785 5.536 8.504 8.753 7.353 10.243 4.969 11.792 2.738 13.128 .816 11.963-.765 10.655-2.18 8.902-4.077 6.434-4.767 4.419-3.614 3-2.804 1.843-1.537 0 0" fill="#ed1e24"/>
</g>
</g>
</svg>
